<svg width="140" height="26" viewBox="0 0 140 26" fill="none" xmlns="http://www.w3.org/2000/svg">
<path d="M131.377 4.98242L130.988 16.9682H131.515L135.506 4.98242H140.001L134.336 20.8169H127.456L128.075 10.6784L125.002 20.8169H118.121L118.282 4.98242H122.777L122.364 16.9682H122.892L126.905 4.98242H131.377Z" fill="#1C67FF"/>
<path d="M110.247 4.83008C113.932 4.83008 115.774 6.27424 115.774 9.16257C115.774 9.6464 115.721 10.1669 115.614 10.724L114.811 15.1225C114.444 17.1604 113.649 18.6706 112.426 19.6529C111.203 20.6352 109.483 21.1264 107.266 21.1264C105.049 21.1264 103.504 20.6352 102.633 19.6529C102.036 18.9785 101.738 18.0475 101.738 16.8599C101.738 16.3321 101.799 15.7529 101.922 15.1225L102.724 10.724C103.443 6.79473 105.951 4.83008 110.247 4.83008ZM107.885 17.7176C108.649 17.7176 109.261 17.527 109.72 17.1458C110.178 16.7646 110.499 16.0608 110.683 15.0345L111.463 10.812C111.509 10.5188 111.532 10.2549 111.532 10.0203C111.532 8.83268 110.905 8.23889 109.651 8.23889C108.076 8.26821 107.136 9.12591 106.83 10.812L106.05 15.0345C105.989 15.4011 105.958 15.7823 105.958 16.1781C105.958 17.2044 106.6 17.7176 107.885 17.7176Z" fill="#1C67FF"/>
<path d="M100.978 4.98242L98.0878 20.8169H93.9365L91.0467 12.1519L89.4872 20.8169H85.3359L88.2487 4.98242H92.5146L95.3585 13.0756L96.8493 4.98242H100.978Z" fill="#1C67FF"/>
<path d="M79.4737 4.98242L76.5839 20.8169H72.4326L73.4876 15.0989H69.0153L67.9833 20.8169H63.832L66.7448 4.98242H70.8731L69.6346 11.6681H74.1069L75.3454 4.98242H79.4737Z" fill="#1C67FF"/>
<path d="M54.7876 21.1264C52.6012 21.1264 51.0875 20.6719 50.2465 19.7629C49.6655 19.1178 49.375 18.2161 49.375 17.0578C49.375 16.5593 49.4285 16.0242 49.5355 15.4524L50.4759 10.3941C51.1639 6.68476 53.6485 4.83008 57.9297 4.83008C59.7034 4.83008 61.0489 5.19662 61.9663 5.92969C62.8837 6.64811 63.3424 7.63776 63.3424 8.89866C63.3424 9.48512 63.2506 10.0716 63.0672 10.658C62.899 11.2298 62.7308 11.655 62.5626 11.9336L62.3103 12.3734H58.2508C58.7554 11.8163 59.0077 11.0246 59.0077 9.99827C59.0077 9.4558 58.8624 9.03061 58.5719 8.72272C58.2814 8.40017 57.8533 8.23889 57.2876 8.23889C55.7433 8.23889 54.8259 9.05993 54.5354 10.702L53.7326 15.1445C53.6562 15.5257 53.618 15.8995 53.618 16.2661C53.618 17.2337 54.2219 17.7176 55.4298 17.7176C56.8824 17.7176 57.7539 16.9332 58.0444 15.3644H62.1727L62.058 16.0022C61.4464 19.4183 59.023 21.1264 54.7876 21.1264Z" fill="#1C67FF"/>
<path d="M49.3683 8.41322H43.7263L41.4558 20.8169H37.3045L39.5751 8.41322H33.9102L34.5523 4.98242H50.0105L49.3683 8.41322Z" fill="#1C67FF"/>
<path d="M27.8063 20.8169L27.9439 17.3641H24.1138L22.99 20.8169H18.6094L24.5037 4.98242H32.0722L32.1639 20.8169H27.8063ZM26.866 8.83108L25.0541 14.4171H28.0586L28.3109 8.83108H26.866Z" fill="#1C67FF"/>
<path d="M7.22451 4.98242L9.67855 12.5698L14.9536 4.98242H19.2883L16.3756 20.8169H12.2243L13.8756 11.888L10.3437 17.2102H7.33918L5.77961 11.888L4.12829 20.8169H0L2.91274 4.98242H7.22451Z" fill="#1C67FF"/>
</svg>
