<svg width="223" height="26" viewBox="0 0 223 26" fill="none" xmlns="http://www.w3.org/2000/svg">
<path d="M209.264 0.265137L208.643 19.3568H209.483L215.84 0.265137H223L213.977 25.4872H203.017L204.003 9.33807L199.108 25.4872H188.148L188.404 0.265137H195.564L194.907 19.3568H195.747L202.14 0.265137H209.264Z" fill="#1C67FF"/>
<path d="M175.608 0.0209961C181.477 0.0209961 184.412 2.32134 184.412 6.92203C184.412 7.6927 184.327 8.52176 184.156 9.4092L182.877 16.4153C182.293 19.6615 181.027 22.0669 179.078 23.6316C177.13 25.1963 174.39 25.9787 170.858 25.9787C167.327 25.9787 164.867 25.1963 163.479 23.6316C162.529 22.5574 162.054 21.0744 162.054 19.1827C162.054 18.342 162.152 17.4195 162.346 16.4153L163.625 9.4092C164.77 3.1504 168.764 0.0209961 175.608 0.0209961ZM171.845 20.5489C173.063 20.5489 174.037 20.2453 174.767 19.6381C175.498 19.0309 176.009 17.91 176.302 16.2752L177.544 9.54933C177.617 9.08225 177.653 8.66188 177.653 8.28822C177.653 6.39657 176.655 5.45074 174.658 5.45074C172.149 5.49745 170.651 6.86364 170.164 9.54933L168.922 16.2752C168.825 16.859 168.776 17.4662 168.776 18.0968C168.776 19.7316 169.799 20.5489 171.845 20.5489Z" fill="#1C67FF"/>
<path d="M160.84 0.265137L156.237 25.4872H149.625L145.022 11.6851L142.538 25.4872H135.925L140.565 0.265137H147.36L151.89 13.1564L154.264 0.265137H160.84Z" fill="#1C67FF"/>
<path d="M126.589 0.265137L121.986 25.4872H115.374L117.054 16.3792H109.93L108.286 25.4872H101.674L106.314 0.265137H112.889L110.917 10.9144H118.04L120.013 0.265137H126.589Z" fill="#1C67FF"/>
<path d="M87.2715 25.9787C83.7887 25.9787 81.3776 25.2547 80.0381 23.8068C79.1126 22.7792 78.6499 21.343 78.6499 19.498C78.6499 18.704 78.7351 17.8516 78.9056 16.9408L80.4034 8.88374C81.4994 2.97525 85.4571 0.0209961 92.2764 0.0209961C95.1015 0.0209961 97.2447 0.60484 98.706 1.77253C100.167 2.91686 100.898 4.49324 100.898 6.50166C100.898 7.43581 100.752 8.36996 100.46 9.30411C100.192 10.2149 99.9238 10.8922 99.6559 11.3359L99.254 12.0365H92.7878C93.5915 11.1491 93.9934 9.88795 93.9934 8.25319C93.9934 7.3891 93.762 6.71184 93.2993 6.22142C92.8365 5.70763 92.1546 5.45074 91.2535 5.45074C88.7936 5.45074 87.3324 6.75855 86.8696 9.37417L85.591 16.4504C85.4692 17.0576 85.4083 17.6531 85.4083 18.2369C85.4083 19.7783 86.3704 20.5489 88.2944 20.5489C90.6081 20.5489 91.9963 19.2995 92.459 16.8007H99.0348L98.8522 17.8166C97.878 23.258 94.0177 25.9787 87.2715 25.9787Z" fill="#1C67FF"/>
<path d="M78.6344 5.72991H69.6475L66.0308 25.4872H59.4185L63.0352 5.72991H54.0117L55.0346 0.265137H79.6573L78.6344 5.72991Z" fill="#1C67FF"/>
<path d="M44.2937 25.4872L44.5129 19.9874H38.412L36.6219 25.4872H29.6443L39.033 0.265137H51.0886L51.2348 25.4872H44.2937ZM42.7958 6.3955L39.9098 15.2933H44.6955L45.0974 6.3955H42.7958Z" fill="#1C67FF"/>
<path d="M11.5076 0.265137L15.4166 12.3507L23.8189 0.265137H30.7235L26.0839 25.4872H19.4716L22.1019 11.2648L16.476 19.7422H11.6903L9.20609 11.2648L6.57578 25.4872H0L4.63958 0.265137H11.5076Z" fill="#1C67FF"/>
</svg>
