<svg width="223" height="26" viewBox="0 0 223 26" fill="none" xmlns="http://www.w3.org/2000/svg">
<path d="M209.264 0.26506L208.643 19.3567H209.483L215.84 0.26506H223L213.977 25.4871H203.017L204.003 9.33799L199.108 25.4871H188.148L188.404 0.26506H195.564L194.907 19.3567H195.747L202.14 0.26506H209.264Z" fill="white"/>
<path d="M175.608 0.0211563C181.477 0.0211563 184.412 2.3215 184.412 6.92219C184.412 7.69286 184.327 8.52192 184.156 9.40936L182.878 16.4155C182.293 19.6617 181.027 22.0671 179.078 23.6318C177.13 25.1965 174.39 25.9788 170.859 25.9788C167.327 25.9788 164.867 25.1965 163.479 23.6318C162.529 22.5575 162.054 21.0746 162.054 19.1829C162.054 18.3422 162.152 17.4197 162.347 16.4155L163.625 9.40936C164.77 3.15056 168.764 0.0211563 175.608 0.0211563ZM171.845 20.5491C173.063 20.5491 174.037 20.2455 174.767 19.6383C175.498 19.0311 176.01 17.9101 176.302 16.2754L177.544 9.54949C177.617 9.08241 177.653 8.66204 177.653 8.28838C177.653 6.39673 176.655 5.4509 174.658 5.4509C172.149 5.49761 170.651 6.8638 170.164 9.54949L168.922 16.2754C168.825 16.8592 168.776 17.4664 168.776 18.097C168.776 19.7317 169.799 20.5491 171.845 20.5491Z" fill="white"/>
<path d="M160.84 0.26506L156.237 25.4871H149.625L145.022 11.685L142.538 25.4871H135.925L140.565 0.26506H147.36L151.89 13.1563L154.264 0.26506H160.84Z" fill="white"/>
<path d="M126.589 0.26506L121.986 25.4871H115.373L117.054 16.3791H109.93L108.286 25.4871H101.674L106.314 0.26506H112.889L110.917 10.9144H118.04L120.013 0.26506H126.589Z" fill="white"/>
<path d="M87.2716 25.9788C83.7888 25.9788 81.3777 25.2549 80.0382 23.8069C79.1127 22.7794 78.65 21.3431 78.65 19.4982C78.65 18.7042 78.7352 17.8517 78.9057 16.9409L80.4035 8.8839C81.4995 2.97541 85.4571 0.0211563 92.2765 0.0211563C95.1016 0.0211563 97.2448 0.605 98.7061 1.77269C100.167 2.91702 100.898 4.4934 100.898 6.50182C100.898 7.43597 100.752 8.37012 100.46 9.30427C100.192 10.2151 99.9239 10.8923 99.656 11.336L99.2541 12.0367H92.7879C93.5916 11.1492 93.9935 9.88811 93.9935 8.25335C93.9935 7.38926 93.7621 6.712 93.2994 6.22158C92.8366 5.70779 92.1547 5.4509 91.2536 5.4509C88.7937 5.4509 87.3325 6.75871 86.8697 9.37433L85.5911 16.4505C85.4693 17.0577 85.4084 17.6532 85.4084 18.2371C85.4084 19.7784 86.3704 20.5491 88.2945 20.5491C90.6082 20.5491 91.9964 19.2997 92.4591 16.8008H99.0349L98.8523 17.8167C97.8781 23.2581 94.0178 25.9788 87.2716 25.9788Z" fill="white"/>
<path d="M78.6343 5.72984H69.6474L66.0307 25.4871H59.4184L63.035 5.72984H54.0116L55.0345 0.26506H79.6572L78.6343 5.72984Z" fill="white"/>
<path d="M44.2936 25.4871L44.5128 19.9873H38.412L36.6219 25.4871H29.6442L39.033 0.26506H51.0886L51.2347 25.4871H44.2936ZM42.7958 6.39542L39.9098 15.2932H44.6955L45.0973 6.39542H42.7958Z" fill="white"/>
<path d="M11.5076 0.26506L15.4165 12.3506L23.8189 0.26506H30.7235L26.0839 25.4871H19.4716L22.1019 11.2647L16.476 19.7421H11.6902L9.20606 11.2647L6.57575 25.4871H-3.05176e-05L4.63955 0.26506H11.5076Z" fill="white"/>
</svg>
